
        <svg xmlns="http://www.w3.org/2000/svg" xmlns:xlink="http://www.w3.org/1999/xlink" version="1.1" width="3198.205816679965" 
        height="2231.79749581641" viewBox="0 0 3198.205816679965 2231.79749581641">
			<rect fill="#ffffff" width="3198.205816679965" height="2231.79749581641"/>
			<g transform="scale(9.910290833998266) translate(10, 10)">
				<defs id="SvgjsDefs1299"></defs><g id="SvgjsG1300" featureKey="rootContainer" transform="matrix(2.607369859683118,0,0,2.607369859683118,0,0)" fill="#444f5a"><path xmlns="http://www.w3.org/2000/svg" d="M116.1 78.7H0V0h116.1zM2 76.7h112.1V2H2z"></path></g><g id="SvgjsG1301" featureKey="monogramFeature-0" transform="matrix(3.774154578262986,0,0,3.774154578262986,57.75542843381822,-81.46920891407137)" fill="#444f5a"><path d="M48.24 37.44 l-34.62 0 l-0.78 2.88 l22.62 0 l-2.34 8.64 l-22.62 0 l-3.12 11.58 l-8.64 0 l8.52 -31.8 l43.32 0 z"></path></g><g id="SvgjsG1302" featureKey="nameFeature-0" transform="matrix(0.416938084223707,0,0,0.416938084223707,49.47709163451168,162.25248107297938)" fill="#444f5a"><path d="M20.293 16.934 l-10.742 0 l0 6.4063 l9.2773 0 l0 5.0977 l-9.2773 0 l0 11.563 l-5.8984 0 l0 -28.223 l16.641 0 l0 5.1563 z M49.62884375 40 l-2.0508 -5.8203 l-11.855 0 l-2.0508 5.8203 l-5.9961 0 l10.391 -28.223 l7.168 0 l10.391 28.223 l-5.9961 0 z M37.441843750000004 29.277 l8.418 0 l-4.1992 -11.973 z M83.10515625 11.777000000000001 l5.8594 0 l0 28.223 l-5.8594 0 l0 -11.602 l-11.934 0 l0 11.602 l-5.8594 0 l0 -28.223 l5.8594 0 l0 11.523 l11.934 0 l0 -11.523 z M101.71870625 40 l0 -28.223 l5.8594 0 l0 28.223 l-5.8594 0 z M152.65615625 40 l-5.8398 0 l-1.8555 -21.27 l-7.1484 21.27 l-3.7891 0 l-7.1484 -21.27 l-1.875 21.27 l-5.8594 0 l2.3633 -28.223 l8.3594 0 l6.0156 17.715 l6.0938 -17.715 l8.3594 0 z M195.23478125 25.098 c3.1836 0.87891 5.3125 2.9688 5.3125 6.9922 c0 4.7656 -2.8906 7.9102 -8.8477 7.9102 l-11.621 0 l0 -28.223 l9.1406 0 c6.0938 0 9.2969 2.9297 9.2969 7.7344 c0 2.4805 -1.0742 4.5117 -3.2813 5.5859 z M189.27778125 16.641 l-3.5547 0 l0 6.6406 l3.8086 0 c2.5 0 3.5938 -1.4844 3.5938 -3.3984 c0 -1.875 -1.2305 -3.2422 -3.8477 -3.2422 z M190.60578125 34.9805 c3.1641 0 4.2578 -1.6992 4.2578 -3.5352 c0 -1.875 -1.0742 -3.6523 -4.375 -3.6523 l-4.7656 0 l0 7.1875 l4.8828 0 z M211.21089375 40 l0 -28.223 l5.8594 0 l0 28.223 l-5.8594 0 z M249.08234375 11.777000000000001 l5.8398 0 l0 28.223 l-6.7773 0 l-12.5 -20.176 l0 20.176 l-5.8398 0 l0 -28.223 l6.6992 0 l12.578 20.059 l0 -20.059 z M289.37498125 34.8242 l8.8477 0 l0 5.1758 l-14.707 0 l0 -28.223 l5.8594 0 l0 23.047 z M320.6441875 40.39063 c-8.3008 0 -14.434 -5.6641 -14.434 -14.512 c0 -8.8672 6.1328 -14.492 14.434 -14.492 c8.2813 0 14.414 5.625 14.414 14.492 c0 8.8477 -6.1328 14.512 -14.414 14.512 z M320.6441875 35.0195 c4.8633 0 8.5938 -3.418 8.5938 -9.1406 c0 -5.7031 -3.7305 -9.1016 -8.5938 -9.1016 s-8.5938 3.3984 -8.5938 9.1016 c0 5.7227 3.7305 9.1406 8.5938 9.1406 z M362.59809375 40 l-8.7695 -11.992 l-2.0703 0 l0 11.992 l-5.8594 0 l0 -28.223 l5.8594 0 l0 11.094 l1.9922 0 l8.8477 -11.094 l7.1484 0 l-10.938 13.496 l11.27 14.727 l-7.4805 0 z M412.07021875 40 l-5.8398 0 l-1.8555 -21.27 l-7.1484 21.27 l-3.7891 0 l-7.1484 -21.27 l-1.875 21.27 l-5.8594 0 l2.3633 -28.223 l8.3594 0 l6.0156 17.715 l6.0938 -17.715 l8.3594 0 z M442.539 40 l-2.0508 -5.8203 l-11.855 0 l-2.0508 5.8203 l-5.9961 0 l10.391 -28.223 l7.168 0 l10.391 28.223 l-5.9961 0 z M430.352 29.277 l8.418 0 l-4.1992 -11.973 z M477.5003125 11.777000000000001 l5.8398 0 l0 28.223 l-6.7773 0 l-12.5 -20.176 l0 20.176 l-5.8398 0 l0 -28.223 l6.6992 0 l12.578 20.059 l0 -20.059 z"></path></g>
			</g>
		</svg>
	